/* XPM */
static char *_f2d18258af8480ae88a4fba87cbebe8[] = {
/* columns rows colors chars-per-pixel */
"128 128 2 1 ",
"  c #E52D27",
". c None",
/* pixels */
"................................................................................................................................",
"................................................................................................................................",
"................................................................................................................................",
"................................................................................................................................",
"................................................................................................................................",
"................................................................................................................................",
"................................................................................................................................",
"................................................................................................................................",
"............................                                                                         ...........................",
"............................                                                                         ...........................",
"............................                                                                         ...........................",
"............................                                                                         ...........................",
"............................                                                                         ...........................",
"............................                                                                         ...........................",
"............................                                                                         ...........................",
"............................                                                                         ...........................",
"............................                                                          .              ...........................",
"............................                                                          .              ...........................",
"............................                                                  .       .              ........... ...............",
"............................                                                   ..    ..                          ...............",
"............................                                                    ..  ....     .           .......................",
"............................                               ..                   ..............      ............................",
"............................                            ...                     ............   .................................",
"............................                          ..                        ................................................",
"............................                        ..                          ................................................",
"............................                     ...                          ..................................................",
"............................                   ...                          ....................................................",
"............................                 ...                               .................................................",
"............................               ...                                ..................     ...........................",
"............................              ..                               ...............          ............................",
"............................            ..                               .............         .................................",
"............................          ...                              ............         ....................................",
"............................        ...                              ..........          .......................................",
"............................       ..                               .........         ..........................................",
"...........................      ...                              ........          ............................................",
"..........................      ..                              ........         .................   ...........................",
".........................     ...                              .......         .............         ...........................",
"........................    ....                             .......          ..........             ...........................",
".......................    ....                             ......          ........                 ...........................",
"......................    ....                             .....          .......                    ...........................",
".....................   .....                             ....           ......                      ...........................",
"....................   .....                            .....           ....                         ...........................",
"...................   ......                           ....           ....                           ...........................",
"..................   .......                          ....           ...                             ...........................",
".................. .........                         ....           ..                               ...........................",
"................. ..........                        ...            ..                                ...........................",
"................ ...........                       ...            .                                  ...........................",
"............................                      ...                                                ...........................",
"............................                     ...                                                 ...........................",
"............................                    ...                                                  ...........................",
"............................                   ...                                                   ...........................",
"............................                   ..                                                    ...........................",
"............................                  ..                                                     ...........................",
"............................                 ..                                                      ...........................",
"............................                ..                                                       ...........................",
"............................                .         ..........    .....         .....       ..................................",
"............................               ..        .............  ......        .....     ....................................",
"............................              ..       ................ ......        .....    .....................................",
"............................              .       ................  .......       .....   ......................................",
"............................             .        ......       ...  ........      .....  ......      ...........................",
"............................            ..       .....          .   .........     .....  .....       ...........................",
"............................            .       ......              .........     ..... .....        ...........................",
"............................           ..     .......               ..........    ..... .....        ...........................",
"............................           .      .......               ....  .....   ....  .....        ...........................",
"............................          .        ......               ..... ......  ....  ....         ...........................",
"............................          .         .....          .... .....  .....  ....  ....         ...........................",
"............................         .        .......          .... .....   ..... ....  .....        ...........................",
"............................         .        .......          .... .....    .......... .....        ...........................",
"............................                  ........         .... .....    .......... .....        ...........................",
"............................        .            .....         .... .....     .........  .....       ...........................",
"............................                     ......        .... .....      ........  ......      ...........................",
"............................                      ........  ....... .....       .......   ......................................",
"............................                       ................ .....       .......    .....................................",
"............................                        ..............  .....        ......     ....................................",
"............................                          ..........    .....         .....       ..................................",
"............................                              ..                                     ..  ...........................",
"............................                                                                         ...........................",
"............................                                                                         ...........................",
"............................                                                                         ...........................",
"............................                                                                         ...........................",
".............................                                                                       ............................",
"................................................................................................................................",
"................................................................................................................................",
"................................................................................................................................",
"................................................................................................................................",
"................................................................................................................................",
"................................................................................................................................",
"................................................................................................................................",
"................................................................................................................................",
"................................................................................................................................",
".............         ........     ..............     ............         .............................    ....................",
"..........               .....      .............      .........              .........................      ...................",
".........                 ....       ............      .......                 ........................      ...................",
".......                     ..        ...........      ......                    ......................      ...................",
"......                      ..         ..........      .....                      .....................      ...................",
".....           ...        ...         ..........      ....          ....        ......................      ...................",
".....        .........     ...          .........      ...         ........     ................................................",
"....        ............  ....           ........      ...       ............  .................................................",
"....       ...................            .......      ..        ............. .................................................",
"...       ....................            .......      ..       ........................        .......      ..     ...       ..",
"          ....................             ......      ..      .......................            .....      ..     ..         .",
"         .....................      .       .....      ..      ......................              ....      ..     .           ",
"         .....................      ..       ....      .       .....................                ...      ..                 ",
"..       .....................      ..       ....      .       ....................        ..        ..      ..                 ",
"...      ..............     ..      ...       ...      .       ....................      ......      ..      ..       ....      ",
"         ..............     ..      ....       ..      .       ...................      ........     ..      ..      ......     ",
"         ..............     ..      .....       .      ..      ...................     .........      .      ..     ........    ",
"          .............     ..      .....              ..      ...................     .........      .      ..     ........    ",
"          .............     ..      ......             ..       ..................     ..........     .      ..     ........    ",
"...        ............     ..      .......            ..        .................     .........      .      ..     ........    ",
"....        ...........     ..      ........           ...        ...........  ...     .........      .      ..     ........    ",
"....         .........      ..      ........           ...         ........     ..      ........     ..      ..     ........    ",
".....          .....        ..      .........          ....           ..         ..      ......      ..      ..     ........    ",
"......                      ..      ..........         .....                     ..       ...        ..      ..     ........    ",
".......                     ..      ...........        ......                    ...                ...      ..     ........    ",
"........                   ...      ...........        .......                 ......              ....      ..     ........    ",
"..........               .....      ............       ........               ........            .....      ..     ........    ",
"...........            .......      .............      ..........           ...........         .......     ...     ........    ",
"................................................................................................................................",
"................................................................................................................................",
"................................................................................................................................",
"................................................................................................................................",
"................................................................................................................................",
"................................................................................................................................",
"................................................................................................................................",
"................................................................................................................................",
"................................................................................................................................",
"................................................................................................................................"
};
