/* XPM */
static char *ce59e18311c74601a7816a657e3720f4[] = {
/* columns rows colors chars-per-pixel */
"32 32 2 1 ",
"  c #E52D27",
". c None",
/* pixels */
"................................",
"................................",
".......                  .......",
".......                  .......",
".......                   ......",
".......             ...  .......",
".......             ............",
".......           ..............",
".......          ..  ...........",
"...... .       ..  ...   .......",
"..... .       ..  ..     .......",
".......      .           .......",
".......     .            .......",
".......    .             .......",
".......      ...... .. .........",
".......     ..   ..  ... .......",
".......     .   .......  .......",
".......     .. ...  .... .......",
".......      ... .  .. .........",
".......                  .......",
"................................",
"................................",
"................................",
"..       ...  .     ...... .....",
".  .....  ..  . ... ............",
"  .....    .    .....    .      ",
"  ....   .      ....  ..     .. ",
".  ...   ..     ....  ..     .. ",
"..       ..   .     . .  .   .. ",
"................................",
"................................",
"................................"
};
