/* XPM */
static char *_2e3103ac1014e258d3a351ce4bc25ea[] = {
/* columns rows colors chars-per-pixel */
"48 48 2 1 ",
"  c #E52D27",
". c None",
/* pixels */
"................................................",
"................................................",
"................................................",
"...........                           ..........",
"..........                            ..........",
"..........                            ..........",
"..........                            ..........",
"..........                      .       ........",
"..........                    .....  ...........",
"..........                    ..................",
"..........                   ...................",
"..........     .            .....    ...........",
"..........   ..           ....    ..............",
"..........  .           ...    ...... ..........",
"......... ..           ..    ...      ..........",
"........ ..          ...   ...        ..........",
"....... ..          ..    ..          ..........",
"...........        ..                 ..........",
"...........       ..                  ..........",
"...........      ..                   ..........",
"...........      .                    ..........",
"...........     .   ..... ..   ..  .............",
"..........     .   ..  .. ..   .  ..  ..........",
"..........        ..      ...  ....   ..........",
"..........       ...     .. .. ....   ..........",
"..........       ...    ...  ......   ..........",
"..........        ...   ...   ..  ..  ..........",
"..........         ........   ... ..............",
"..........           ..             ............",
"..........                            ..........",
"...........                          ...........",
"................................................",
"................................................",
"................................................",
"....     ..   ..... ....     ..........  .......",
"...       .   ....   ..       .........  .......",
"..   ...  .    ...   .   ...  ..................",
".   .......     ..  ..  .........   ...... ..  .",
"   ........      .      ........     ..  .      ",
".  ...... .  ..  ..     .......  ...  .  .  ..  ",
"    .....    ..     .   .......  ...  .  .  ..  ",
".   .....    ...    ..  .......  ...  .  . ...  ",
"..    .      ....    .        .   .   .  .  ..  ",
"...       .  .....   ..       ..     ..  . ...  ",
"................................................",
"................................................",
"................................................",
"................................................"
};
