/* XPM */
static char *_528bcadce044bb9f2988f6f4f604153[] = {
/* columns rows colors chars-per-pixel */
"16 16 2 1 ",
"  c #E52D27",
". c None",
/* pixels */
"................",
"...          ...",
"...       .  ...",
"...       ......",
"...     ... ....",
"...          ...",
"....        ....",
"...   . .. .....",
"...   . ...  ...",
"....        ....",
"................",
".  .....  ......",
"  .  .  ... .   ",
" ..     ..      ",
".   .. .  ... ..",
"................"
};
