<?xml version="1.0" encoding="utf-8"?>
<!-- Generator: Adobe Illustrator 19.0.0, SVG Export Plug-In . SVG Version: 6.00 Build 0)  -->
<svg version="1.1"
	 id="svg2" xmlns:inkscape="http://www.inkscape.org/namespaces/inkscape" xmlns:dc="http://purl.org/dc/elements/1.1/" xmlns:sodipodi="http://sodipodi.sourceforge.net/DTD/sodipodi-0.dtd" xmlns:cc="http://creativecommons.org/ns#" xmlns:svg="http://www.w3.org/2000/svg" xmlns:rdf="http://www.w3.org/1999/02/22-rdf-syntax-ns#" sodipodi:docname="bitcoin-logo-noshadow.svg" inkscape:version="0.48.2 r9819"
	 xmlns="http://www.w3.org/2000/svg" xmlns:xlink="http://www.w3.org/1999/xlink" x="0px" y="0px" viewBox="206 -116 1024 1024"
	 style="enable-background:new 206 -116 1024 1024;" xml:space="preserve">
<style type="text/css">
	.st0{display:none;}
	.st1{display:inline;fill:#FFFFFF;}
	.st2{display:inline;}
	.st3{fill:url(#SVGID_1_);}
	.st4{fill:url(#SVGID_2_);}
	.st5{display:inline;fill:url(#SVGID_3_);}
	.st6{fill:#E52D27;}
</style>
<g class="st0">
	<circle class="st1" cx="2536.2" cy="-683.8" r="353.1"/>
	<g class="st2">
		
			<radialGradient id="SVGID_1_" cx="3230.6333" cy="-460.596" r="34.4319" gradientTransform="matrix(1.7655 0 0 1.7655 -3127.8394 26.0413)" gradientUnits="userSpaceOnUse">
			<stop  offset="0" style="stop-color:#F9AA4B"/>
			<stop  offset="1" style="stop-color:#F7931A"/>
		</radialGradient>
		<path class="st3" d="M2535.6-825.7l-24.7,99c28,7,114.3,35.4,128.3-20.6C2653.8-805.7,2563.6-818.7,2535.6-825.7z"/>
	</g>
	<g class="st2">
		
			<radialGradient id="SVGID_2_" cx="3215.0916" cy="-372.4699" r="39.8579" gradientTransform="matrix(1.7655 0 0 1.7655 -3127.8394 26.0413)" gradientUnits="userSpaceOnUse">
			<stop  offset="0" style="stop-color:#F9AA4B"/>
			<stop  offset="1" style="stop-color:#F7931A"/>
		</radialGradient>
		<path class="st4" d="M2498.5-676.7l-27.2,109.2c33.6,8.3,137.3,41.6,152.6-19.9C2639.9-651.7,2532.1-668.3,2498.5-676.7z"/>
	</g>
	
		<radialGradient id="SVGID_3_" cx="3209.1433" cy="-401.0712" r="255.9973" gradientTransform="matrix(1.7655 0 0 1.7655 -3127.8394 26.0413)" gradientUnits="userSpaceOnUse">
		<stop  offset="0" style="stop-color:#F9AA4B"/>
		<stop  offset="1" style="stop-color:#F7931A"/>
	</radialGradient>
	<path class="st5" d="M2647.2-1120.5c-242.1-60.4-487.3,87-547.7,329.2c-60.4,242.1,87,487.4,329,547.7
		c242.2,60.4,487.4-87,547.8-329.1S2889.4-1060.1,2647.2-1120.5z M2737.2-746.4c-6.5,44-30.9,65.3-63.3,72.8
		c44.5,23.2,67.1,58.7,45.6,120.3c-26.8,76.5-90.4,82.9-174.9,66.9l-20.6,82.3l-49.6-12.4l20.3-81.1c-12.9-3.2-26-6.6-39.5-10.3
		l-20.3,81.5l-49.5-12.4l20.5-82.4c-11.6-3-23.3-6.1-35.4-9.1l-64.5-16.1l24.6-56.8c0,0,36.5,9.7,36,9c14,3.5,20.3-5.7,22.7-11.8
		l32.4-130l0.1-0.4l23.1-92.8c0.6-10.5-3-23.8-23.1-28.8c0.8-0.5-36-9-36-9l13.2-53l68.4,17.1l-0.1,0.3c10.3,2.6,20.9,5,31.7,7.4
		l20.3-81.4l49.6,12.4l-19.9,79.9c13.3,3,26.7,6.1,39.7,9.4l19.8-79.3l49.6,12.4l-20.3,81.5C2700.4-838.9,2746.2-806.5,2737.2-746.4
		z"/>
</g>
<path class="st6" d="M933.7,387.5c-6.4,3.8-11.5,9-15.2,15.6c-3.7,6.6-5.5,13.9-5.5,21.9c0,8,1.8,15.3,5.5,22
	c3.7,6.6,8.7,11.9,15.2,15.8c6.4,3.9,13.5,5.8,21.3,5.8c5.1,0,10.2-1.1,15.5-3.1v-80.4c-5.1-2.1-10.3-3.2-15.5-3.2
	C947.3,381.7,940.2,383.6,933.7,387.5"/>
<path class="st6" d="M962.4,509.3c-16,0-30.6-3.7-43.7-11.1c-13.1-7.4-23.3-17.5-30.8-30.5c-7.5-12.9-11.2-27.3-11.2-43.2
	c0-15.7,3.8-30,11.4-42.7c7.6-12.8,18.1-22.8,31.4-30.1c13.3-7.3,28-11,44.2-11c6.3,0,12.6,0.7,18.8,2.1V183.6
	C875,197.9,773.5,226.5,685.7,292.8c78.5-91,182.5-133.5,296.5-155.9v-12.3c-14.4,2.2-28.1,4-41.7,6.3
	c-92.3,15.6-180.4,43.4-260.9,92.2c-108.5,65.8-186.2,157.1-228.3,277.6c-1,2.9-2.2,5.7-3.3,8.5c-0.8-1.7-0.7-3.1-0.3-4.4
	c24.1-84,65.8-157.9,125.6-221.7c64.8-69.2,142.8-118.9,229.5-155.9c2.2-0.9,4.3-2.2,6.5-3.3c-0.1-0.9-0.2-1.9-0.2-2.8
	c-14.1-1.2-28.3-2.3-42.8-3.5c10.1-2.8,20.1-4.9,29.6-8.3c22.7-8.2,27.5-21.7,15.4-42.6c-5-8.5-11.1-16.3-16.7-24.5
	c3,1.3,5.2,3.4,7.7,5.1c7.7,5.5,14.9,11.7,23.2,16c13.9,7.4,24.5,4.4,32-9.4c4.6-8.4,7.3-17.9,10.6-27c1.6-4.3,2.6-8.9,4-13.9
	c0,12.3-0.7,23.8,0.1,35.2c1.6,21.9,12.7,30,34,24.4c11.7-3.1,23-8,33.8-11.9c-10.6,8.8-21.8,18-32.9,27.1c0.5,0.8,0.9,1.5,1.4,2.2
	c77.2-21.3,155.8-33.6,235.6-38.1c0-0.9-0.1-1.9-0.1-2.8c-53.4,2.1-106.7,4.2-161,6.3v-93.4H396.5c-0.3,1.7-0.7,2.9-0.7,4
	c-0.3,65.8-0.7,131.6-0.6,197.4c0,6-1.5,9.9-5.9,13.6c-24.3,20.2-46.3,42.8-65,68.3c-8.6,11.7-16.5,23.9-24.7,35.9
	c0.6,0.5,1.1,0.9,1.7,1.4c56.4-54.8,121.5-97.3,189.7-135.4c85.7-47.9,190.7-88.8,216.1-89.7c-5.9,2.2-10.8,4.1-15.8,5.9
	c-58.6,21-115.4,46.2-169.7,76.8c-42.4,23.9-82.6,50.9-118.2,84.4c-4.7,4.4-7.7,8.9-7.3,16c0.7,13.8,0.5,27.7,0.5,41.6
	c-0.2,86.4-0.5,172.9-0.8,259.3c0,2.3,0.2,4.6,0.4,7.5h586.4v-42.3C975.9,508.4,969.1,509.3,962.4,509.3 M600.8,451.3
	c4.6,8,10.8,14.3,18.7,18.9c7.9,4.6,16.5,6.9,26,6.9c4.8,0,10-0.8,15.6-2.5c5.6-1.6,11-3.9,16.3-6.7v-43.7h32v63.5
	c-8.7,6.4-19.1,11.6-31.3,15.5c-12.1,4-23.8,6-35,6c-16.3,0-31.1-3.7-44.4-11.1c-13.2-7.4-23.7-17.5-31.3-30.3
	c-2.4-4.1-4.5-8.4-6.1-12.9h-19.9v-22.8h14.9c-0.2-2.4-0.3-4.9-0.3-7.4c0-1.1,0.1-2.2,0.1-3.3h-14.7v-22.8h18.6
	c1.9-5.8,4.4-11.5,7.7-16.8c7.8-12.8,18.5-22.9,32.1-30.2c13.6-7.3,28.7-11,45.4-11c12.1,0,24,2.2,35.6,6.5
	c11.6,4.4,21.6,10.3,30,17.7l-20.8,26.4c-6.1-5.8-13.1-10.3-21-13.5c-7.9-3.3-15.9-4.9-23.8-4.9c-9.5,0-18.2,2.3-26,6.9
	c-7.9,4.6-14,10.8-18.6,18.7c-4.5,7.9-6.8,16.6-6.8,26.3C593.9,434.5,596.2,443.3,600.8,451.3 M867.6,506.8h-33.6l-79.1-105v105
	h-35.2V343.4h33.6l79.4,105.5V343.4h35V506.8z"/>
<path class="st6" d="M409.1,837.6c15.5-5.1,28.9-11.7,40.1-19.9v-81.3h-41v55.9c-6.8,3.6-13.8,6.4-20.9,8.5
	c-7.2,2.1-13.9,3.1-20,3.1c-12.2,0-23.3-2.9-33.3-8.8c-10.1-5.9-18-13.9-23.9-24.2c-5.9-10.3-8.8-21.6-8.8-33.9
	c0-12.4,2.9-23.6,8.7-33.6c5.8-10.1,13.7-18,23.8-23.9c10.1-5.9,21.2-8.8,33.3-8.8c10.2,0,20.3,2.1,30.5,6.3
	c10.2,4.2,19.1,10,26.9,17.3l26.6-33.8c-10.8-9.6-23.6-17.1-38.4-22.7c-3.9-1.5-7.8-2.7-11.7-3.8h-68.5c-8.2,2.3-16.1,5.4-23.5,9.5
	c-17.4,9.4-31.1,22.3-41.1,38.7c-4.2,6.8-7.4,14-9.8,21.5h33v29.2h-38.1c0,1.4-0.1,2.8-0.1,4.2c0,3.2,0.1,6.4,0.4,9.5h37.8v29.2
	h-31.4c2.1,5.7,4.8,11.2,7.9,16.5c9.8,16.4,23.1,29.4,40.1,38.9c5.8,3.3,11.9,5.9,18.2,8.1h78.5
	C405.9,838.7,407.5,838.2,409.1,837.6"/>
<polygon class="st6" points="651.6,634 606.8,634 606.8,767.8 506.1,634 462.1,634 462.1,839.2 507.2,839.2 507.2,707.5 
	606.4,839.2 651.6,839.2 "/>
<path class="st6" d="M818.4,835.1c15-6.8,28.1-15.9,39.3-27.5l-27.8-30.2c-7.6,7.6-16.2,13.6-25.9,18.1c-9.7,4.5-19.2,6.7-28.5,6.7
	c-11.8,0-22.5-2.9-32.3-8.8c-9.8-5.9-17.4-13.8-23-23.9c-5.6-10.1-8.4-21.2-8.4-33.3c0-12.2,2.8-23.2,8.4-33.2
	c5.6-10,13.3-17.8,23-23.6c9.8-5.8,20.5-8.7,32.3-8.7c9.8,0,19.5,2.4,29.1,7.3c9.7,4.9,18.1,11.6,25.3,20.2l27.5-33.8
	c-10.4-10.8-22.9-19.3-37.7-25.6c-4.5-1.9-9-3.5-13.6-4.8h-64.9c-8,2.3-15.7,5.4-23,9.5c-17,9.4-30.4,22.2-40.2,38.6
	c-9.8,16.3-14.6,34.6-14.6,54.7c0,20.3,4.8,38.8,14.3,55.3c9.6,16.5,22.7,29.5,39.5,39c5.8,3.3,11.8,5.9,18,8.1h73
	C811.5,838,814.9,836.6,818.4,835.1"/>
<path class="st6" d="M974.5,834.8c11.6-6.1,20.6-14.7,27-25.8c6.4-11.1,9.6-23.8,9.6-38.1c0-14.5-3.2-27.3-9.6-38.3
	c-6.4-11-15.4-19.5-27-25.5c-11.6-6-24.9-9-40-9c-15.2,0-28.7,3-40.3,9c-11.6,6-20.6,14.5-27,25.5c-6.4,11-9.6,23.7-9.6,38.3
	c0,14.4,3.2,27.1,9.6,38.1c6.4,11.1,15.4,19.7,27,25.8c3.2,1.7,6.6,3.2,10.2,4.4h59.9C967.8,837.9,971.2,836.5,974.5,834.8
	 M934.5,810.7c-10.6,0-19.3-3.6-25.9-10.9c-6.6-7.3-10-16.7-10-28.4c0-11.7,3.3-21.2,10-28.4c6.6-7.3,15.3-10.9,25.9-10.9
	c10.5,0,19,3.6,25.6,10.9c6.6,7.3,10,16.7,10,28.4c0,11.7-3.3,21.2-10,28.4C953.5,807.1,944.9,810.7,934.5,810.7"/>
<rect x="1021.2" y="699.4" class="st6" width="40.9" height="139.8"/>
<rect x="1021.2" y="634" class="st6" width="40.9" height="40.6"/>
<path class="st6" d="M1210,839.2v-122c-1.2-1.6-2.4-3.1-3.8-4.5c-9.5-9.9-22.2-14.9-38.1-14.9c-23,0.4-39.5,9.2-49.4,26.6v-25h-40.9
	v139.8h40.9v-67.2c0-10.6,2.9-19.4,8.8-26.2c5.8-6.8,13.8-10.3,23.9-10.5c8.7,0,15.5,2.6,20.6,7.8c5,5.2,7.6,12.4,7.6,21.4v74.7
	H1210z"/>
<polygon class="st6" points="290.9,703.7 257.9,703.7 234.1,703.7 234.1,732.9 252.9,732.9 290.9,732.9 "/>
<polygon class="st6" points="290.9,746.6 253.2,746.6 234.1,746.6 234.1,775.8 259.6,775.8 290.9,775.8 "/>
</svg>
